<svg width="1920" height="1080" viewBox="0 0 1920 1080" fill="none" xmlns="http://www.w3.org/2000/svg">
<g clip-path="url(#clip0_811_133)">
<rect width="1920" height="1080" fill="#161723"/>
<g filter="url(#filter0_f_811_133)">
<path d="M476.193 729.251L456.71 641.405C441.403 572.381 396.345 513.665 333.634 481.017L308.792 468.085C274.465 450.214 236.998 439.171 198.466 435.567L126.465 428.832C119.07 428.14 111.779 427.229 104.437 426.103C58.6166 419.074 -115.683 392.951 -117.471 402.042C-120.232 416.081 -114.752 431.88 -100.704 434.597L78.0841 469.175L208.197 481.016C253.757 485.162 297.232 502.043 333.652 529.728C378.756 564.015 410.513 612.939 423.465 668.095L451.585 787.842C460.195 824.505 490.608 852.006 527.951 856.893C596.254 865.832 629.931 944.763 589.12 1000.26L477.512 1152.02C470.33 1161.79 470.639 1175.17 478.265 1184.59C489.892 1198.96 512.256 1197.43 521.819 1181.62L644.945 977.945C685.352 911.103 644.45 824.699 567.139 813.583C522.233 807.126 486.015 773.543 476.193 729.251Z" fill="url(#paint0_linear_811_133)"/>
</g>
<g filter="url(#filter1_f_811_133)">
<path d="M417.578 797.967L409.233 720.379C402.676 659.415 369.487 604.475 318.575 570.306L298.408 556.77C270.539 538.067 239.308 524.946 206.444 518.134L151.328 506.711C140.828 504.535 130.332 502.84 119.673 501.667C72.0523 496.426 -66.3125 481.85 -68.6142 489.154C-74.7642 508.667 -62.3419 529.288 -41.8973 530.076L89.5832 535.145C96.1533 535.398 102.692 536.188 109.133 537.506L210.461 558.243C249.331 566.197 285.178 584.927 313.907 612.291C349.486 646.18 372.152 691.401 378.012 740.186L390.735 846.1C394.63 878.529 418.199 905.156 449.915 912.959C507.926 927.231 529.363 998.5 488.851 1042.41L378.064 1162.48C370.934 1170.21 369.913 1181.77 375.58 1190.63C384.22 1204.13 403.643 1204.96 413.406 1192.25L539.113 1028.54C580.367 974.818 553.422 896.413 487.856 879.398C449.773 869.515 421.785 837.087 417.578 797.967Z" fill="url(#paint1_linear_811_133)"/>
</g>
<g filter="url(#filter2_f_811_133)">
<path d="M1473.87 239.302L1521.95 315.361C1559.73 375.124 1622 415.115 1692.07 424.598L1719.82 428.355C1758.17 433.546 1797.16 431.25 1834.64 421.594L1904.67 403.55C1911.86 401.697 1919.03 400.085 1926.32 398.659C1971.81 389.758 2144.66 355.317 2143.26 346.158C2141.11 332.013 2130.6 319.002 2116.46 321.203L1936.53 349.208L1810.09 382.125C1765.82 393.651 1719.2 392.489 1675.55 378.772C1621.5 361.783 1575.06 326.503 1544.19 278.991L1477.19 175.84C1456.67 144.257 1418.74 128.68 1381.95 136.726C1314.66 151.443 1256.24 88.5796 1275.85 22.5443L1329.48 -158.045C1332.93 -169.667 1328.1 -182.155 1317.74 -188.44C1301.93 -198.024 1281.41 -189.012 1277.76 -170.89L1230.88 62.4417C1215.49 139.017 1283.24 206.467 1359.74 190.748C1404.18 181.617 1449.63 200.953 1473.87 239.302Z" fill="url(#paint2_linear_811_133)"/>
</g>
<g filter="url(#filter3_f_811_133)">
<path d="M1505.76 154.797L1539.88 224.976C1566.69 280.118 1616.53 320.575 1676 335.486L1699.56 341.392C1732.11 349.554 1765.94 351.325 1799.17 346.605L1854.9 338.691C1865.52 337.183 1875.97 335.223 1886.39 332.718C1932.98 321.524 2068.1 288.387 2067.8 280.735C2066.97 260.292 2048.3 245.096 2028.8 251.277L1903.37 291.029C1897.1 293.015 1890.68 294.486 1884.18 295.427L1781.81 310.227C1742.55 315.904 1702.47 310.419 1666.18 294.4C1621.22 274.56 1584.58 239.686 1562.55 195.767L1514.72 100.418C1500.07 71.2242 1468.88 54.1508 1436.39 57.5482C1376.97 63.7623 1332.67 3.96277 1355.92 -51.0678L1419.51 -201.562C1423.6 -211.247 1420.64 -222.474 1412.31 -228.889C1399.61 -238.669 1381.05 -232.875 1376.17 -217.606L1313.32 -21.0043C1292.7 43.5169 1344.6 108.166 1412.06 101.974C1451.24 98.3774 1488.55 119.413 1505.76 154.797Z" fill="url(#paint3_linear_811_133)"/>
</g>
</g>
<defs>
<filter id="filter0_f_811_133" x="-126.163" y="392.143" width="794.939" height="810.346" filterUnits="userSpaceOnUse" color-interpolation-filters="sRGB">
<feFlood flood-opacity="0" result="BackgroundImageFix"/>
<feBlend mode="normal" in="SourceGraphic" in2="BackgroundImageFix" result="shape"/>
<feGaussianBlur stdDeviation="4" result="effect1_foregroundBlur_811_133"/>
</filter>
<filter id="filter1_f_811_133" x="-78.1934" y="479.146" width="644.934" height="730.146" filterUnits="userSpaceOnUse" color-interpolation-filters="sRGB">
<feFlood flood-opacity="0" result="BackgroundImageFix"/>
<feBlend mode="normal" in="SourceGraphic" in2="BackgroundImageFix" result="shape"/>
<feGaussianBlur stdDeviation="4" result="effect1_foregroundBlur_811_133"/>
</filter>
<filter id="filter2_f_811_133" x="1220.68" y="-200.326" width="930.592" height="639.385" filterUnits="userSpaceOnUse" color-interpolation-filters="sRGB">
<feFlood flood-opacity="0" result="BackgroundImageFix"/>
<feBlend mode="normal" in="SourceGraphic" in2="BackgroundImageFix" result="shape"/>
<feGaussianBlur stdDeviation="4" result="effect1_foregroundBlur_811_133"/>
</filter>
<filter id="filter3_f_811_133" x="1300.75" y="-241.704" width="775.051" height="598.888" filterUnits="userSpaceOnUse" color-interpolation-filters="sRGB">
<feFlood flood-opacity="0" result="BackgroundImageFix"/>
<feBlend mode="normal" in="SourceGraphic" in2="BackgroundImageFix" result="shape"/>
<feGaussianBlur stdDeviation="4" result="effect1_foregroundBlur_811_133"/>
</filter>
<linearGradient id="paint0_linear_811_133" x1="1143.41" y1="944.664" x2="528.283" y2="1804.57" gradientUnits="userSpaceOnUse">
<stop stop-color="#490A7A"/>
<stop offset="1" stop-color="#0B14DE"/>
</linearGradient>
<linearGradient id="paint1_linear_811_133" x1="967.354" y1="1044.4" x2="353.526" y2="1725.36" gradientUnits="userSpaceOnUse">
<stop stop-color="#490A7A"/>
<stop offset="1" stop-color="#0B14DE"/>
</linearGradient>
<linearGradient id="paint2_linear_811_133" x1="773.127" y1="262.545" x2="1060.74" y2="-754.855" gradientUnits="userSpaceOnUse">
<stop stop-color="#490A7A"/>
<stop offset="1" stop-color="#0B14DE"/>
</linearGradient>
<linearGradient id="paint3_linear_811_133" x1="905.014" y1="109.088" x2="1252" y2="-739.496" gradientUnits="userSpaceOnUse">
<stop stop-color="#490A7A"/>
<stop offset="1" stop-color="#0B14DE"/>
</linearGradient>
<clipPath id="clip0_811_133">
<rect width="1920" height="1080" fill="white"/>
</clipPath>
</defs>
</svg>
