<svg width="1440" height="1372" viewBox="0 0 1440 1372" fill="none" xmlns="http://www.w3.org/2000/svg">
<g clip-path="url(#clip0_326_19)">
<path d="M0 -1.67504C0 -45.4851 36.7127 -81 82 -81H1358C1403.29 -81 1440 -45.4849 1440 -1.67504V1209.98C1440 1247.02 1413.41 1279.61 1375.19 1281.86C1347.33 1283.51 1315.79 1282.42 1292.1 1273.31C1209.76 1241.64 1226.65 1114.62 1253.09 1018.68C1268.18 963.9 1227.38 905.632 1168.78 905.632H1123.03C1064.51 905.632 1023.86 963.748 1038.2 1018.64C1060.29 1103.21 1071.37 1207.79 1000 1228.9C962.62 1239.96 935.686 1244.41 900 1228.9C857.115 1210.26 860.043 1148.76 872.078 1095.51C881.608 1053.34 850.713 1008.88 806.092 1008.88C761.507 1008.88 730.453 1053.15 743.216 1094.47C772.619 1189.68 800.581 1333.9 712.319 1362.38C668.071 1376.67 638.149 1373.66 593.002 1362.38C468.263 1331.22 519.612 1116.5 560.618 992.867C574.579 950.775 542.732 905.632 497.035 905.632C451.298 905.632 419.494 951.165 428.968 994.452C440.982 1049.34 443.834 1113.72 400.915 1137.65C355.015 1163.25 311.512 1163.25 265.611 1137.65C217.57 1110.87 226.878 1033.39 242.19 975.287C251.097 941.484 225.888 905.632 189.827 905.632C153.926 905.632 128.879 940.967 140.153 973.941C181.068 1093.6 244.149 1331.43 112.15 1362.38C99.7615 1365.29 85.0917 1366.51 70.5155 1366.77C29.8847 1367.5 0 1333.28 0 1293.96V-1.67504Z" fill="url(#paint0_radial_326_19)"/>
<path d="M0 -1.67504C0 -45.4851 36.7127 -81 82 -81H1358C1403.29 -81 1440 -45.4849 1440 -1.67504V1209.98C1440 1247.02 1413.41 1279.61 1375.19 1281.86C1347.33 1283.51 1315.79 1282.42 1292.1 1273.31C1209.76 1241.64 1226.65 1114.62 1253.09 1018.68C1268.18 963.9 1227.38 905.632 1168.78 905.632H1123.03C1064.51 905.632 1023.86 963.748 1038.2 1018.64C1060.29 1103.21 1071.37 1207.79 1000 1228.9C962.62 1239.96 935.686 1244.41 900 1228.9C857.115 1210.26 860.043 1148.76 872.078 1095.51C881.608 1053.34 850.713 1008.88 806.092 1008.88C761.507 1008.88 730.453 1053.15 743.216 1094.47C772.619 1189.68 800.581 1333.9 712.319 1362.38C668.071 1376.67 638.149 1373.66 593.002 1362.38C468.263 1331.22 519.612 1116.5 560.618 992.867C574.579 950.775 542.732 905.632 497.035 905.632C451.298 905.632 419.494 951.165 428.968 994.452C440.982 1049.34 443.834 1113.72 400.915 1137.65C355.015 1163.25 311.512 1163.25 265.611 1137.65C217.57 1110.87 226.878 1033.39 242.19 975.287C251.097 941.484 225.888 905.632 189.827 905.632C153.926 905.632 128.879 940.967 140.153 973.941C181.068 1093.6 244.149 1331.43 112.15 1362.38C99.7615 1365.29 85.0917 1366.51 70.5155 1366.77C29.8847 1367.5 0 1333.28 0 1293.96V-1.67504Z" fill="url(#paint1_radial_326_19)"/>
<path d="M0 -16.8015C0 -61.094 36.7127 -97 82 -97H1358C1403.29 -97 1440 -61.0939 1440 -16.8015V1208.19C1440 1245.64 1413.41 1278.59 1375.19 1280.86C1347.33 1282.53 1315.79 1281.44 1292.1 1272.22C1209.76 1240.2 1226.65 1111.79 1253.09 1014.79C1268.18 959.406 1227.38 900.497 1168.78 900.497H1123.03C1064.51 900.497 1023.86 959.253 1038.2 1014.75C1060.29 1100.25 1071.37 1205.98 1000 1227.32C962.62 1238.5 935.686 1243 900 1227.32C857.115 1208.48 860.043 1146.3 872.078 1092.46C881.608 1049.83 850.713 1004.88 806.092 1004.88C761.507 1004.88 730.453 1049.64 743.216 1091.42C772.619 1187.67 800.581 1333.48 712.319 1362.27C668.071 1376.72 638.149 1373.68 593.002 1362.27C468.263 1330.78 519.612 1113.69 560.618 988.692C574.579 946.136 542.732 900.497 497.035 900.497C451.298 900.497 419.494 946.531 428.968 990.294C440.982 1045.78 443.834 1110.88 400.915 1135.07C355.015 1160.95 311.512 1160.95 265.611 1135.07C217.57 1107.99 226.878 1029.66 242.19 970.919C251.097 936.743 225.888 900.497 189.827 900.497C153.926 900.497 128.879 936.22 140.153 969.557C181.068 1090.54 244.149 1330.98 112.15 1362.27C99.7615 1365.22 85.0917 1366.45 70.5155 1366.71C29.8847 1367.45 0 1332.85 0 1293.1V-16.8015Z" fill="url(#paint2_radial_326_19)"/>
</g>
<defs>
<radialGradient id="paint0_radial_326_19" cx="0" cy="0" r="1" gradientUnits="userSpaceOnUse" gradientTransform="translate(1203.08 1428.91) rotate(-158.6) scale(809.087 1730.67)">
<stop stop-color="#400B88"/>
<stop offset="0.935417" stop-color="#161723"/>
</radialGradient>
<radialGradient id="paint1_radial_326_19" cx="0" cy="0" r="1" gradientUnits="userSpaceOnUse" gradientTransform="translate(-95.4051 1947.74) rotate(-51.3317) scale(466.984 570.568)">
<stop stop-color="#250FB3"/>
<stop offset="1" stop-color="#161623" stop-opacity="0"/>
</radialGradient>
<radialGradient id="paint2_radial_326_19" cx="0" cy="0" r="1" gradientUnits="userSpaceOnUse" gradientTransform="translate(29.5717 -3.7612) rotate(74.0342) scale(1232.49 1004.61)">
<stop stop-color="#5507D6"/>
<stop offset="1" stop-opacity="0"/>
</radialGradient>
<clipPath id="clip0_326_19">
<rect width="1440" height="1372" fill="white"/>
</clipPath>
</defs>
</svg>
