<svg width="1440" height="1372" viewBox="0 0 1440 1372" fill="none" xmlns="http://www.w3.org/2000/svg">
<g clip-path="url(#clip0_339_57)">
<path d="M0 0.400808C0 -43.343 36.7127 -78.8042 82 -78.8042H1358C1403.29 -78.8042 1440 -43.3429 1440 0.400808V1210.22C1440 1247.21 1413.41 1279.75 1375.19 1281.99C1347.33 1283.64 1315.79 1282.56 1292.1 1273.45C1209.76 1241.83 1226.65 1115.01 1253.09 1019.21C1268.18 964.512 1227.38 906.336 1168.78 906.336H1123.03C1064.51 906.336 1023.86 964.36 1038.2 1019.17C1060.29 1103.61 1071.37 1208.04 1000 1229.11C962.62 1240.15 935.686 1244.6 900 1229.11C857.115 1210.5 860.043 1149.1 872.078 1095.92C881.608 1053.82 850.713 1009.43 806.092 1009.43C761.507 1009.43 730.453 1053.63 743.216 1094.89C772.619 1189.95 800.581 1333.95 712.319 1362.39C668.071 1376.66 638.149 1373.66 593.002 1362.39C468.263 1331.28 519.612 1116.89 560.618 993.437C574.579 951.408 542.732 906.336 497.035 906.336C451.298 906.336 419.494 951.802 428.968 995.023C440.982 1049.82 443.834 1114.11 400.915 1138C355.015 1163.56 311.512 1163.56 265.611 1138C217.57 1111.26 226.878 1033.9 242.19 975.888C251.097 942.134 225.888 906.336 189.827 906.336C153.926 906.336 128.879 941.618 140.153 974.544C181.068 1094.02 244.149 1331.49 112.15 1362.39C99.7615 1365.3 85.0917 1366.51 70.5155 1366.78C29.8847 1367.5 0 1333.34 0 1294.07V0.400808Z" fill="url(#paint0_radial_339_57)"/>
<path d="M0 0.400808C0 -43.343 36.7127 -78.8042 82 -78.8042H1358C1403.29 -78.8042 1440 -43.3429 1440 0.400808V1210.22C1440 1247.21 1413.41 1279.75 1375.19 1281.99C1347.33 1283.64 1315.79 1282.56 1292.1 1273.45C1209.76 1241.83 1226.65 1115.01 1253.09 1019.21C1268.18 964.512 1227.38 906.336 1168.78 906.336H1123.03C1064.51 906.336 1023.86 964.36 1038.2 1019.17C1060.29 1103.61 1071.37 1208.04 1000 1229.11C962.62 1240.15 935.686 1244.6 900 1229.11C857.115 1210.5 860.043 1149.1 872.078 1095.92C881.608 1053.82 850.713 1009.43 806.092 1009.43C761.507 1009.43 730.453 1053.63 743.216 1094.89C772.619 1189.95 800.581 1333.95 712.319 1362.39C668.071 1376.66 638.149 1373.66 593.002 1362.39C468.263 1331.28 519.612 1116.89 560.618 993.437C574.579 951.408 542.732 906.336 497.035 906.336C451.298 906.336 419.494 951.802 428.968 995.023C440.982 1049.82 443.834 1114.11 400.915 1138C355.015 1163.56 311.512 1163.56 265.611 1138C217.57 1111.26 226.878 1033.9 242.19 975.888C251.097 942.134 225.888 906.336 189.827 906.336C153.926 906.336 128.879 941.618 140.153 974.544C181.068 1094.02 244.149 1331.49 112.15 1362.39C99.7615 1365.3 85.0917 1366.51 70.5155 1366.78C29.8847 1367.5 0 1333.34 0 1294.07V0.400808Z" fill="url(#paint1_radial_339_57)"/>
<path d="M0 0.400808C0 -43.343 36.7127 -78.8042 82 -78.8042H1358C1403.29 -78.8042 1440 -43.3429 1440 0.400808V1210.22C1440 1247.21 1413.41 1279.75 1375.19 1281.99C1347.33 1283.64 1315.79 1282.56 1292.1 1273.45C1209.76 1241.83 1226.65 1115.01 1253.09 1019.21C1268.18 964.512 1227.38 906.336 1168.78 906.336H1123.03C1064.51 906.336 1023.86 964.36 1038.2 1019.17C1060.29 1103.61 1071.37 1208.04 1000 1229.11C962.62 1240.15 935.686 1244.6 900 1229.11C857.115 1210.5 860.043 1149.1 872.078 1095.92C881.608 1053.82 850.713 1009.43 806.092 1009.43C761.507 1009.43 730.453 1053.63 743.216 1094.89C772.619 1189.95 800.581 1333.95 712.319 1362.39C668.071 1376.66 638.149 1373.66 593.002 1362.39C468.263 1331.28 519.612 1116.89 560.618 993.437C574.579 951.408 542.732 906.336 497.035 906.336C451.298 906.336 419.494 951.802 428.968 995.023C440.982 1049.82 443.834 1114.11 400.915 1138C355.015 1163.56 311.512 1163.56 265.611 1138C217.57 1111.26 226.878 1033.9 242.19 975.888C251.097 942.134 225.888 906.336 189.827 906.336C153.926 906.336 128.879 941.618 140.153 974.544C181.068 1094.02 244.149 1331.49 112.15 1362.39C99.7615 1365.3 85.0917 1366.51 70.5155 1366.78C29.8847 1367.5 0 1333.34 0 1294.07V0.400808Z" fill="url(#paint2_radial_339_57)"/>
<path d="M0 37.6521C0 -4.90366 36.7127 -39.4019 82 -39.4019H1358C1403.29 -39.4019 1440 -4.90356 1440 37.6521V1214.61C1440 1250.6 1413.41 1282.26 1375.19 1284.44C1347.33 1286.04 1315.79 1284.99 1292.1 1276.13C1209.76 1245.37 1226.65 1121.99 1253.09 1028.79C1268.18 975.58 1227.38 918.984 1168.78 918.984H1123.03C1064.51 918.984 1023.86 975.432 1038.2 1028.75C1060.29 1110.9 1071.37 1212.49 1000 1232.99C962.62 1243.74 935.686 1248.06 900 1232.99C857.115 1214.89 860.043 1155.15 872.078 1103.42C881.608 1062.47 850.713 1019.28 806.092 1019.28C761.507 1019.28 730.453 1062.28 743.216 1102.42C772.619 1194.9 800.581 1334.99 712.319 1362.65C668.071 1376.53 638.149 1373.61 593.002 1362.65C468.263 1332.39 519.612 1123.82 560.618 1003.72C574.579 962.832 542.732 918.984 497.035 918.984C451.298 918.984 419.494 963.215 428.968 1005.26C440.982 1058.57 443.834 1121.11 400.915 1144.36C355.015 1169.23 311.512 1169.23 265.611 1144.36C217.57 1118.34 226.878 1043.08 242.19 986.647C251.097 953.809 225.888 918.984 189.827 918.984C153.926 918.984 128.879 953.308 140.153 985.34C181.068 1101.57 244.149 1332.59 112.15 1362.65C99.7615 1365.48 85.0917 1366.66 70.5155 1366.92C29.8847 1367.63 0 1334.39 0 1296.19V37.6521Z" fill="url(#paint3_radial_339_57)" fill-opacity="0.2"/>
</g>
<defs>
<radialGradient id="paint0_radial_339_57" cx="0" cy="0" r="1" gradientUnits="userSpaceOnUse" gradientTransform="translate(1203.08 1428.82) rotate(-158.629) scale(808.924 1728.4)">
<stop stop-color="#400B88"/>
<stop offset="0.935417" stop-color="#161723"/>
</radialGradient>
<radialGradient id="paint1_radial_339_57" cx="0" cy="0" r="1" gradientUnits="userSpaceOnUse" gradientTransform="translate(1511.5 1412.92) rotate(-143.877) scale(796.041 1208.18)">
<stop stop-color="#250FB3"/>
<stop offset="1" stop-color="#161623" stop-opacity="0"/>
</radialGradient>
<radialGradient id="paint2_radial_339_57" cx="0" cy="0" r="1" gradientUnits="userSpaceOnUse" gradientTransform="translate(29.5717 13.2796) rotate(62.5125) scale(1531.63 1265.23)">
<stop stop-color="#5507D6"/>
<stop offset="1" stop-opacity="0"/>
</radialGradient>
<radialGradient id="paint3_radial_339_57" cx="0" cy="0" r="1" gradientUnits="userSpaceOnUse" gradientTransform="translate(276 1797.58) rotate(-48.5793) scale(1440.48 4713.51)">
<stop offset="0.171769" stop-color="#EB00FF"/>
<stop offset="1" stop-opacity="0"/>
</radialGradient>
<clipPath id="clip0_339_57">
<rect width="1440" height="1372" fill="white"/>
</clipPath>
</defs>
</svg>
