<svg width="1440" height="1009" viewBox="0 0 1440 1009" fill="none" xmlns="http://www.w3.org/2000/svg">
<path d="M0 0H1440V1008.93H1292.1H1000H900H712.319H593.002H400.915H265.611H114.642H0V0Z" fill="url(#paint0_radial_407_48)"/>
<path d="M0 0H1440V1008.93H1292.1H1000H900H712.319H593.002H400.915H265.611H114.642H0V0Z" fill="url(#paint1_radial_407_48)"/>
<path d="M0 0H1440V1008.93H1292.1H1000H900H712.319H593.002H400.915H265.611H114.642H0V0Z" fill="url(#paint2_radial_407_48)"/>
<path d="M0 0H1440V1008.93H1292.1H1000H900H712.319H593.002H400.915H265.611H114.642H0V0Z" fill="url(#paint3_radial_407_48)" fill-opacity="0.2"/>
<defs>
<radialGradient id="paint0_radial_407_48" cx="0" cy="0" r="1" gradientUnits="userSpaceOnUse" gradientTransform="translate(1203.08 1607.03) rotate(-158.162) scale(811.545 1764.41)">
<stop stop-color="#400B88"/>
<stop offset="0.935417" stop-color="#161723"/>
</radialGradient>
<radialGradient id="paint1_radial_407_48" cx="0" cy="0" r="1" gradientUnits="userSpaceOnUse" gradientTransform="translate(-95.405 2137.58) rotate(-51.9547) scale(473.446 575.499)">
<stop stop-color="#250FB3"/>
<stop offset="1" stop-color="#161623" stop-opacity="0"/>
</radialGradient>
<radialGradient id="paint2_radial_407_48" cx="0" cy="0" r="1" gradientUnits="userSpaceOnUse" gradientTransform="translate(29.5715 157.308) rotate(74.206) scale(1245.55 1005.47)">
<stop stop-color="#5507D6"/>
<stop offset="1" stop-opacity="0"/>
</radialGradient>
<radialGradient id="paint3_radial_407_48" cx="0" cy="0" r="1" gradientUnits="userSpaceOnUse" gradientTransform="translate(494 808) rotate(59.9932) scale(569.884 813.371)">
<stop stop-color="#2310B7"/>
<stop offset="1" stop-opacity="0"/>
</radialGradient>
</defs>
</svg>
