<svg width="66" height="34" viewBox="0 0 66 34" fill="none" xmlns="http://www.w3.org/2000/svg">
<path d="M7.5 18.2386C6.07955 18.2386 4.86364 17.9574 3.85227 17.3949C2.84091 16.8267 2.06534 16.0369 1.52557 15.0256C0.985795 14.0085 0.715909 12.8295 0.715909 11.4886C0.715909 10.1477 0.985795 8.97159 1.52557 7.96023C2.06534 6.94318 2.84091 6.15341 3.85227 5.59091C4.86364 5.02273 6.07955 4.73864 7.5 4.73864C8.78409 4.73864 9.89489 4.97159 10.8324 5.4375C11.7756 5.89773 12.5057 6.55114 13.0227 7.39773C13.5398 8.23864 13.8011 9.22727 13.8068 10.3636H9.44318C9.38068 9.67614 9.18182 9.15341 8.84659 8.79545C8.51705 8.43182 8.09091 8.25 7.56818 8.25C7.15909 8.25 6.80114 8.36932 6.49432 8.60795C6.1875 8.84091 5.94886 9.19602 5.77841 9.6733C5.60795 10.1449 5.52273 10.7386 5.52273 11.4545C5.52273 12.1705 5.60795 12.767 5.77841 13.2443C5.94886 13.7159 6.1875 14.071 6.49432 14.3097C6.80114 14.5426 7.15909 14.6591 7.56818 14.6591C7.91477 14.6591 8.22159 14.5795 8.48864 14.4205C8.75568 14.2557 8.97159 14.017 9.13636 13.7045C9.30682 13.3864 9.40909 13 9.44318 12.5455H13.8068C13.7898 13.6989 13.5256 14.7045 13.0142 15.5625C12.5028 16.4148 11.7784 17.0739 10.8409 17.5398C9.90909 18.0057 8.79545 18.2386 7.5 18.2386ZM20.4524 0.545454V18H15.7479V0.545454H20.4524ZM22.8494 18V4.90909H27.3153V7.39773H27.4517C27.7244 6.57955 28.1903 5.93182 28.8494 5.45454C29.5085 4.97727 30.2926 4.73864 31.2017 4.73864C32.1222 4.73864 32.9148 4.98295 33.5795 5.47159C34.2443 5.95455 34.6449 6.59659 34.7812 7.39773H34.9176C35.1392 6.59659 35.6108 5.95455 36.3324 5.47159C37.054 4.98295 37.9006 4.73864 38.8722 4.73864C40.1278 4.73864 41.1449 5.14205 41.9233 5.94886C42.7074 6.75568 43.0994 7.82955 43.0994 9.17045V18H38.3949V10.3636C38.3949 9.78977 38.25 9.34091 37.9602 9.01705C37.6705 8.6875 37.2813 8.52273 36.7926 8.52273C36.3097 8.52273 35.9261 8.6875 35.642 9.01705C35.3636 9.34091 35.2244 9.78977 35.2244 10.3636V18H30.7244V10.3636C30.7244 9.78977 30.5795 9.34091 30.2898 9.01705C30 8.6875 29.6108 8.52273 29.1222 8.52273C28.7983 8.52273 28.5199 8.59659 28.2869 8.74432C28.054 8.89205 27.8722 9.10511 27.7415 9.38352C27.6165 9.65625 27.554 9.98295 27.554 10.3636V18H22.8494ZM1.19318 33V19.9091H5.65909V22.3977H5.79545C6.06818 21.5795 6.53409 20.9318 7.19318 20.4545C7.85227 19.9773 8.63636 19.7386 9.54545 19.7386C10.4659 19.7386 11.2585 19.983 11.9233 20.4716C12.5881 20.9545 12.9886 21.5966 13.125 22.3977H13.2614C13.483 21.5966 13.9545 20.9545 14.6761 20.4716C15.3977 19.983 16.2443 19.7386 17.2159 19.7386C18.4716 19.7386 19.4886 20.142 20.267 20.9489C21.0511 21.7557 21.4432 22.8295 21.4432 24.1705V33H16.7386V25.3636C16.7386 24.7898 16.5938 24.3409 16.304 24.017C16.0142 23.6875 15.625 23.5227 15.1364 23.5227C14.6534 23.5227 14.2699 23.6875 13.9858 24.017C13.7074 24.3409 13.5682 24.7898 13.5682 25.3636V33H9.06818V25.3636C9.06818 24.7898 8.9233 24.3409 8.63352 24.017C8.34375 23.6875 7.95455 23.5227 7.46591 23.5227C7.14205 23.5227 6.86364 23.5966 6.63068 23.7443C6.39773 23.892 6.21591 24.1051 6.08523 24.3835C5.96023 24.6562 5.89773 24.983 5.89773 25.3636V33H1.19318ZM35.7294 24.1705H31.3999C31.3771 23.9034 31.2834 23.6733 31.1186 23.4801C30.9538 23.2869 30.7408 23.1392 30.4794 23.0369C30.2237 22.929 29.9396 22.875 29.6271 22.875C29.2237 22.875 28.8771 22.9489 28.5874 23.0966C28.2976 23.2443 28.1555 23.4545 28.1612 23.7273C28.1555 23.9205 28.2379 24.0994 28.4084 24.2642C28.5845 24.429 28.9226 24.5568 29.4226 24.6477L32.0817 25.125C33.4226 25.3693 34.4197 25.7812 35.0732 26.3608C35.7322 26.9347 36.0646 27.7045 36.0703 28.6705C36.0646 29.6023 35.7862 30.4119 35.2351 31.0994C34.6896 31.7812 33.9425 32.3097 32.9936 32.6847C32.0504 33.054 30.9737 33.2386 29.7635 33.2386C27.7635 33.2386 26.1982 32.8295 25.0675 32.0114C23.9425 31.1932 23.3146 30.1136 23.1839 28.7727H27.8544C27.9169 29.1875 28.1214 29.5085 28.468 29.7358C28.8203 29.9574 29.2635 30.0682 29.7976 30.0682C30.2294 30.0682 30.5845 29.9943 30.8629 29.8466C31.147 29.6989 31.2919 29.4886 31.2976 29.2159C31.2919 28.9659 31.1669 28.767 30.9226 28.6193C30.6839 28.4716 30.3089 28.3523 29.7976 28.2614L27.4794 27.8523C26.1442 27.6193 25.1442 27.1761 24.4794 26.5227C23.8146 25.8693 23.4851 25.0284 23.4908 24C23.4851 23.0909 23.7237 22.321 24.2067 21.6903C24.6953 21.054 25.3913 20.571 26.2947 20.2415C27.2038 19.9062 28.2805 19.7386 29.5249 19.7386C31.4169 19.7386 32.9084 20.1307 33.9993 20.9148C35.0959 21.6989 35.6726 22.7841 35.7294 24.1705ZM44.1797 33.2386C42.7592 33.2386 41.5433 32.9574 40.532 32.3949C39.5206 31.8267 38.745 31.0369 38.2053 30.0256C37.6655 29.0085 37.3956 27.8295 37.3956 26.4886C37.3956 25.1477 37.6655 23.9716 38.2053 22.9602C38.745 21.9432 39.5206 21.1534 40.532 20.5909C41.5433 20.0227 42.7592 19.7386 44.1797 19.7386C45.4638 19.7386 46.5746 19.9716 47.5121 20.4375C48.4553 20.8977 49.1854 21.5511 49.7024 22.3977C50.2195 23.2386 50.4808 24.2273 50.4865 25.3636H46.1229C46.0604 24.6761 45.8615 24.1534 45.5263 23.7955C45.1967 23.4318 44.7706 23.25 44.2479 23.25C43.8388 23.25 43.4808 23.3693 43.174 23.608C42.8672 23.8409 42.6286 24.196 42.4581 24.6733C42.2876 25.1449 42.2024 25.7386 42.2024 26.4545C42.2024 27.1705 42.2876 27.767 42.4581 28.2443C42.6286 28.7159 42.8672 29.071 43.174 29.3097C43.4808 29.5426 43.8388 29.6591 44.2479 29.6591C44.5945 29.6591 44.9013 29.5795 45.1683 29.4205C45.4354 29.2557 45.6513 29.017 45.8161 28.7045C45.9865 28.3864 46.0888 28 46.1229 27.5455H50.4865C50.4695 28.6989 50.2053 29.7045 49.6939 30.5625C49.1825 31.4148 48.4581 32.0739 47.5206 32.5398C46.5888 33.0057 45.4751 33.2386 44.1797 33.2386ZM57.1321 25.6364V33H52.4276V15.5455H56.9616V22.3977H57.098C57.3935 21.5625 57.8849 20.9119 58.5724 20.446C59.2599 19.9744 60.0866 19.7386 61.0526 19.7386C61.9787 19.7386 62.7827 19.9489 63.4645 20.3693C64.152 20.7898 64.6832 21.3693 65.0582 22.108C65.4389 22.8466 65.6264 23.6932 65.6207 24.6477V33H60.9162V25.6364C60.9219 24.9886 60.7599 24.4801 60.4304 24.1108C60.1065 23.7415 59.6435 23.5568 59.0412 23.5568C58.6605 23.5568 58.3253 23.642 58.0355 23.8125C57.7514 23.9773 57.5298 24.2159 57.3707 24.5284C57.2173 24.8352 57.1378 25.2045 57.1321 25.6364Z" fill="url(#paint0_linear_826_210)"/>
<defs>
<linearGradient id="paint0_linear_826_210" x1="7.49618e-07" y1="-10.975" x2="113.048" y2="30.5154" gradientUnits="userSpaceOnUse">
<stop stop-color="#490A7A"/>
<stop offset="1" stop-color="#0B14DE"/>
</linearGradient>
</defs>
</svg>
