<svg width="61" height="35" viewBox="0 0 61 35" fill="none" xmlns="http://www.w3.org/2000/svg">
<g clip-path="url(#clip0_813_125)">
<path d="M20.0898 28.3548C20.0898 28.9304 20.1543 29.3996 20.283 29.7623C20.4119 30.125 20.6372 30.405 20.9591 30.6021C20.9671 30.6414 20.9713 30.7085 20.9713 30.8031V30.9805C20.9713 32.0607 20.6493 32.9044 20.0055 33.5116C19.3615 34.1187 18.5284 34.4222 17.5063 34.4222C16.4921 34.4222 15.6752 34.1502 15.0553 33.6062C14.323 32.9754 13.9567 32.0095 13.9567 30.7085V26.9711C13.9567 26.4428 13.7796 26.1786 13.4254 26.1786C13.2887 26.1786 13.18 26.2101 13.0995 26.2732L13.3168 28.0356V30.7085C13.3168 31.7808 13.4979 32.593 13.8601 33.145C13.4738 33.547 12.9909 33.8624 12.4113 34.0911C11.8399 34.3119 11.2563 34.4222 10.6607 34.4222C9.69489 34.4222 8.94631 34.1936 8.41517 33.7363C7.77121 33.1843 7.44931 32.3131 7.44931 31.1224V26.9711C7.44931 26.4428 7.27221 26.1786 6.91801 26.1786C6.78125 26.1786 6.67245 26.2101 6.59209 26.2732L6.80937 28.0356V31.1698C6.80937 32.0528 6.93007 32.7348 7.17161 33.216C6.3827 34.0123 5.27605 34.4104 3.85138 34.4104C3.00637 34.4104 2.29395 34.2015 1.71444 33.7837C1.04637 33.3025 0.712417 32.6561 0.712417 31.8439V26.1904C0.237524 25.536 0 24.7318 0 23.7777C0 22.8158 0.237524 21.9839 0.712417 21.2821H3.62204C4.19352 21.2821 4.68047 21.4912 5.08288 21.909C4.72868 22.2322 4.55174 22.5003 4.55174 22.7132C4.55174 22.9577 4.69252 23.0798 4.97424 23.0798C5.32844 22.4806 5.81539 22.0036 6.43508 21.6488C7.15955 21.2467 8.00858 21.0456 8.98248 21.0456C9.72302 21.0456 10.371 21.1993 10.9264 21.5069C11.4897 21.8144 11.9083 22.1692 12.182 22.5713C12.5602 22.0667 13.0513 21.6883 13.6549 21.4359C14.2666 21.1757 14.9025 21.0456 15.5625 21.0456C17.0193 21.0456 18.1501 21.4872 18.9551 22.3703C19.7438 23.2533 20.1382 24.4637 20.1382 26.0012L20.0898 28.3548ZM27.9133 24.9368C27.704 24.9999 27.5994 25.1221 27.5994 25.3034V25.3625C27.5994 25.402 27.6034 25.4256 27.6115 25.4335C27.7 25.4256 27.8167 25.4217 27.9616 25.4217H28.2514C29.1689 25.4217 30.0261 25.5597 30.8231 25.8357C31.6279 26.1037 32.2839 26.5374 32.7909 27.1366C33.3544 27.8147 33.6361 28.6702 33.6361 29.7031C33.6361 31.3116 33.0686 32.5259 31.9337 33.346C30.7988 34.1661 29.2817 34.576 27.3821 34.576C25.4826 34.576 23.9936 34.2686 22.9151 33.6535C21.8446 33.0385 21.3093 32.1356 21.3093 30.9451C21.3093 30.5035 21.4059 30.1014 21.599 29.7387C21.7922 29.3681 22.0095 29.1079 22.251 28.958C22.6936 29.3207 23.3336 29.6362 24.1707 29.9042C25.0157 30.1644 25.9092 30.2946 26.8508 30.2946C27.2291 30.2946 27.4183 30.1921 27.4183 29.987C27.4183 29.8924 27.4062 29.8136 27.3821 29.7505C27.3257 29.7584 27.2574 29.7623 27.1769 29.7623H27.044C25.3378 29.7623 23.9735 29.4312 22.9512 28.7687C21.7922 28.0198 21.2127 26.9631 21.2127 25.5991C21.2127 24.2351 21.7318 23.1312 22.7701 22.2875C23.9211 21.357 25.5027 20.8918 27.5149 20.8918C28.505 20.8918 29.4265 20.9943 30.2797 21.1993C31.1409 21.4044 31.8773 21.6765 32.4891 22.0154C32.642 22.3388 32.7185 22.8158 32.7185 23.4465C32.7185 24.4084 32.4488 25.1457 31.9096 25.6583C31.4992 25.4374 30.996 25.2561 30.4004 25.1142C29.8129 24.9643 29.2817 24.8895 28.8068 24.8895C28.3319 24.8895 28.0341 24.9053 27.9133 24.9368ZM40.8558 30.0905C40.9262 30.0905 40.9896 30.0733 41.046 30.0387V29.097C41.5249 28.7796 42.1939 28.5209 43.0531 28.3209C43.9195 28.1208 44.7611 28.0207 45.578 28.0207C45.9512 28.3933 46.2612 28.9521 46.5077 29.6972C46.7611 30.4355 46.8949 31.1047 46.909 31.7049C46.7682 31.9809 46.5287 32.2776 46.1907 32.595C45.8597 32.9123 45.4582 33.2055 44.9864 33.4745C43.8173 34.1508 42.4756 34.4888 40.9615 34.4888C38.7924 34.4888 37.0844 33.8713 35.8379 32.6363C34.5491 31.3876 33.9047 29.6594 33.9047 27.4515C33.9047 25.2368 34.6089 23.4983 36.0175 22.2357C36.6372 21.67 37.3591 21.2456 38.183 20.9628C39.0072 20.6731 39.8734 20.5282 40.7819 20.5282C42.5566 20.5282 44.011 20.949 45.1448 21.7908C46.2788 22.6325 46.8456 23.6707 46.8456 24.9057C46.8456 25.8371 46.5534 26.5271 45.9688 26.9755C45.3843 27.417 44.592 27.6379 43.5918 27.6379C43.0426 27.6379 42.4897 27.5068 41.9334 27.2446C41.377 26.9755 41.046 26.7236 40.9403 26.4891C40.9403 25.9234 40.951 25.4783 40.972 25.1542C40.9579 25.1472 40.9333 25.1437 40.8981 25.1437H40.8241C40.7185 25.1437 40.634 25.1748 40.5706 25.2368C40.5142 25.2921 40.4614 25.4129 40.4121 25.5991C40.3699 25.7853 40.3487 26.2925 40.3487 27.1204C40.3487 29.1004 40.5178 30.0905 40.8558 30.0905ZM60.1187 28.3548C60.1187 28.9226 60.1831 29.3799 60.3118 29.7269C60.4406 30.0737 60.666 30.3458 60.9879 30.5429C60.996 30.5824 61 30.6572 61 30.7677V30.9805C61 32.0686 60.6781 32.9162 60.0341 33.5234C59.3982 34.1226 58.5733 34.4222 57.5591 34.4222C56.553 34.4222 55.736 34.1423 55.1083 33.5825C54.3758 32.9439 54.0097 31.974 54.0097 30.6731C54.0097 30.1211 54.0338 29.6362 54.082 29.2182C54.1384 28.7925 54.1746 28.489 54.1906 28.3076C54.2149 28.1263 54.239 27.9567 54.2631 27.7989C54.2872 27.6414 54.2994 27.4087 54.2994 27.1012C54.2994 26.7937 54.2551 26.5728 54.1665 26.4389C54.086 26.3047 53.9693 26.2378 53.8165 26.2378C53.6715 26.2378 53.5428 26.2693 53.4302 26.3324L53.587 28.2602C53.4422 29.0567 53.3697 29.9002 53.3697 30.7913C53.3697 31.6822 53.575 32.4944 53.9854 33.2278C53.1966 34.0241 52.09 34.4222 50.6653 34.4222C49.8525 34.4222 49.1481 34.2133 48.5525 33.7955C47.8603 33.3224 47.5142 32.6955 47.5142 31.9149V18.1125C47.9005 17.8917 48.3633 17.7104 48.9027 17.5684C49.4499 17.4265 50.0013 17.3555 50.5567 17.3555C51.4822 17.3555 52.2469 17.5329 52.8506 17.8878C53.5348 18.3056 53.8768 18.9048 53.8768 19.6854V20.809C53.1766 20.8485 52.5045 21.0456 51.8605 21.4005C51.3053 21.7158 51.0276 22.0036 51.0276 22.2639C51.0276 22.3506 51.0597 22.4295 51.1241 22.5003C51.1884 22.5635 51.2649 22.6028 51.3535 22.6187C51.6916 22.2322 52.1665 21.909 52.7782 21.6488C53.3979 21.3885 54.1304 21.2585 54.9755 21.2585C55.8205 21.2585 56.5812 21.3846 57.2573 21.6369C58.1105 21.9523 58.7825 22.4334 59.2735 23.0798C59.8611 23.8684 60.1548 24.8579 60.1548 26.0486L60.1187 28.3548Z" fill="url(#paint0_linear_813_125)"/>
<path d="M6.95124 12.9205C7.0217 12.9205 7.08507 12.9033 7.14132 12.8688V11.927C7.62023 11.6097 8.28938 11.3509 9.1486 11.1509C10.0148 10.9508 10.8564 10.8507 11.6733 10.8507C12.0466 11.2233 12.3565 11.7821 12.603 12.5272C12.8566 13.2655 12.9904 13.9347 13.0045 14.5349C12.8635 14.8109 12.6241 15.1076 12.286 15.425C11.955 15.7423 11.5537 16.0355 11.0817 16.3045C9.91263 16.9808 8.57109 17.3188 7.05679 17.3188C4.8877 17.3188 3.17976 16.7013 1.93326 15.4663C0.644421 14.2176 0 12.4894 0 10.2815C0 8.06688 0.70438 6.32833 2.11283 5.06577C2.73268 4.50003 3.45452 4.07573 4.27852 3.79286C5.10251 3.50309 5.96869 3.35821 6.87721 3.35821C8.65207 3.35821 10.1063 3.77907 11.2403 4.62078C12.3741 5.46247 12.9411 6.50082 12.9411 7.73578C12.9411 8.66714 12.6487 9.35717 12.0643 9.80558C11.4796 10.247 10.6873 10.4679 9.68732 10.4679C9.13794 10.4679 8.58516 10.3368 8.02867 10.0746C7.47234 9.80558 7.14132 9.55367 7.03577 9.31917C7.03577 8.75343 7.04628 8.30835 7.06745 7.98422C7.05339 7.97726 7.02866 7.97378 6.99343 7.97378H6.91956C6.81385 7.97378 6.72932 8.00481 6.66596 8.06688C6.60956 8.12214 6.55686 8.24295 6.50756 8.42915C6.46522 8.61536 6.4442 9.12252 6.4442 9.95046C6.4442 11.9304 6.61311 12.9205 6.95124 12.9205ZM19.7548 2.76388V11.0784C19.7548 12.2532 20.0446 13.0182 20.6241 13.3729C20.6321 13.4124 20.6361 13.4872 20.6361 13.5977V13.8105C20.6361 14.9381 20.3423 15.7936 19.7548 16.377C19.1753 16.9605 18.3504 17.2522 17.2799 17.2522C16.2094 17.2522 15.3602 16.9605 14.7323 16.377C13.9839 15.6832 13.6096 14.6346 13.6096 13.231V0.942493C14.4546 0.437852 15.4205 0.185547 16.5072 0.185547C17.6018 0.185547 18.4147 0.414205 18.9459 0.871522C19.4853 1.32096 19.7548 1.95174 19.7548 2.76388ZM40.726 11.1849C40.726 11.7604 40.7904 12.2296 40.9191 12.5923C41.048 12.955 41.2733 13.235 41.5952 13.4321C41.6034 13.4714 41.6074 13.5385 41.6074 13.6331V13.8105C41.6074 14.8907 41.2854 15.7344 40.6416 16.3416C39.9976 16.9487 39.1645 17.2522 38.1424 17.2522C37.1282 17.2522 36.3113 16.9802 35.6914 16.4362C34.9591 15.8054 34.5928 14.8395 34.5928 13.5385V9.80119C34.5928 9.27285 34.4157 9.00867 34.0615 9.00867C33.9248 9.00867 33.8161 9.04016 33.7356 9.10329L33.9529 10.8656V13.5385C33.9529 14.6108 34.134 15.423 34.4963 15.975C34.1099 16.377 33.627 16.6924 33.0475 16.9211C32.476 17.1419 31.8925 17.2522 31.2969 17.2522C30.331 17.2522 29.5824 17.0236 29.0513 16.5663C28.4073 16.0143 28.0854 15.1431 28.0854 13.9524V9.80119C28.0854 9.27285 27.9083 9.00867 27.5541 9.00867C27.4174 9.00867 27.3087 9.04016 27.2282 9.10329L27.4455 10.8656V13.9998C27.4455 14.8828 27.5662 15.5648 27.8077 16.046C27.019 16.8423 25.9122 17.2404 24.4875 17.2404C23.6425 17.2404 22.9301 17.0315 22.3506 16.6137C21.6825 16.1326 21.3485 15.4861 21.3485 14.6739V9.02048C20.8736 8.36603 20.6361 7.56181 20.6361 6.60776C20.6361 5.6458 20.8736 4.81395 21.3485 4.1122H24.2582C24.8296 4.1122 25.3166 4.32115 25.719 4.73904C25.3648 5.06232 25.1879 5.3304 25.1879 5.5433C25.1879 5.78773 25.3286 5.90995 25.6104 5.90995C25.9646 5.31069 26.4515 4.83366 27.0712 4.47884C27.7957 4.07672 28.6447 3.87565 29.6186 3.87565C30.3591 3.87565 31.0071 4.02941 31.5625 4.33692C32.1258 4.64442 32.5444 4.99925 32.8181 5.40137C33.1964 4.89674 33.6874 4.51827 34.291 4.26595C34.9027 4.00574 35.5386 3.87565 36.1986 3.87565C37.6555 3.87565 38.7862 4.3172 39.5912 5.20031C40.3799 6.08341 40.7743 7.29374 40.7743 8.83124L40.726 11.1849Z" fill="url(#paint1_linear_813_125)"/>
</g>
<defs>
<linearGradient id="paint0_linear_813_125" x1="6.82488e-07" y1="9.9076" x2="87.2286" y2="60.6857" gradientUnits="userSpaceOnUse">
<stop stop-color="#490A7A"/>
<stop offset="1" stop-color="#0B14DE"/>
</linearGradient>
<linearGradient id="paint1_linear_813_125" x1="4.65517e-07" y1="-7.22461" x2="68.7156" y2="20.1986" gradientUnits="userSpaceOnUse">
<stop stop-color="#490A7A"/>
<stop offset="1" stop-color="#0B14DE"/>
</linearGradient>
<clipPath id="clip0_813_125">
<rect width="61" height="35" fill="white"/>
</clipPath>
</defs>
</svg>
