<svg width="61" height="35" viewBox="0 0 61 35" fill="none" xmlns="http://www.w3.org/2000/svg">
<path d="M20.0898 28.355C20.0898 28.9306 20.1543 29.3998 20.283 29.7625C20.4119 30.1252 20.6372 30.4052 20.9591 30.6023C20.9671 30.6416 20.9713 30.7087 20.9713 30.8033V30.9807C20.9713 32.0609 20.6493 32.9046 20.0055 33.5118C19.3615 34.1189 18.5284 34.4224 17.5063 34.4224C16.4921 34.4224 15.6752 34.1504 15.0553 33.6064C14.323 32.9756 13.9567 32.0097 13.9567 30.7087V26.9713C13.9567 26.443 13.7796 26.1788 13.4254 26.1788C13.2887 26.1788 13.18 26.2103 13.0995 26.2734L13.3168 28.0358V30.7087C13.3168 31.781 13.4979 32.5932 13.8601 33.1452C13.4738 33.5472 12.9909 33.8626 12.4113 34.0913C11.8399 34.3121 11.2563 34.4224 10.6607 34.4224C9.69489 34.4224 8.94631 34.1938 8.41517 33.7365C7.77121 33.1845 7.44931 32.3133 7.44931 31.1226V26.9713C7.44931 26.443 7.27221 26.1788 6.91801 26.1788C6.78125 26.1788 6.67245 26.2103 6.59209 26.2734L6.80937 28.0358V31.17C6.80937 32.053 6.93007 32.735 7.17161 33.2162C6.3827 34.0125 5.27605 34.4106 3.85138 34.4106C3.00637 34.4106 2.29395 34.2017 1.71444 33.7839C1.04637 33.3027 0.712417 32.6563 0.712417 31.8441V26.1906C0.237524 25.5362 0 24.732 0 23.7779C0 22.816 0.237524 21.9841 0.712417 21.2823H3.62204C4.19352 21.2823 4.68047 21.4914 5.08288 21.9092C4.72868 22.2324 4.55174 22.5005 4.55174 22.7134C4.55174 22.9579 4.69252 23.08 4.97424 23.08C5.32844 22.4808 5.81539 22.0038 6.43508 21.649C7.15955 21.2469 8.00858 21.0458 8.98248 21.0458C9.72302 21.0458 10.371 21.1995 10.9264 21.5071C11.4897 21.8146 11.9083 22.1694 12.182 22.5715C12.5602 22.0669 13.0513 21.6885 13.6549 21.4361C14.2666 21.1759 14.9025 21.0458 15.5625 21.0458C17.0193 21.0458 18.1501 21.4874 18.9551 22.3705C19.7438 23.2535 20.1382 24.4639 20.1382 26.0014L20.0898 28.355ZM27.9133 24.937C27.704 25.0001 27.5994 25.1223 27.5994 25.3036V25.3627C27.5994 25.4022 27.6034 25.4258 27.6115 25.4337C27.7 25.4258 27.8167 25.4219 27.9616 25.4219H28.2514C29.1689 25.4219 30.0261 25.5599 30.8231 25.8359C31.6279 26.1039 32.2839 26.5376 32.7909 27.1368C33.3544 27.8149 33.6361 28.6704 33.6361 29.7033C33.6361 31.3118 33.0686 32.5261 31.9337 33.3462C30.7988 34.1663 29.2817 34.5762 27.3821 34.5762C25.4826 34.5762 23.9936 34.2688 22.9151 33.6537C21.8446 33.0387 21.3093 32.1358 21.3093 30.9453C21.3093 30.5037 21.4059 30.1016 21.599 29.7389C21.7922 29.3683 22.0095 29.1081 22.251 28.9582C22.6936 29.3209 23.3336 29.6364 24.1707 29.9044C25.0157 30.1646 25.9092 30.2948 26.8508 30.2948C27.2291 30.2948 27.4183 30.1923 27.4183 29.9872C27.4183 29.8926 27.4062 29.8138 27.3821 29.7507C27.3257 29.7586 27.2574 29.7625 27.1769 29.7625H27.044C25.3378 29.7625 23.9735 29.4314 22.9512 28.7689C21.7922 28.02 21.2127 26.9633 21.2127 25.5993C21.2127 24.2353 21.7318 23.1314 22.7701 22.2877C23.9211 21.3572 25.5027 20.892 27.5149 20.892C28.505 20.892 29.4265 20.9945 30.2797 21.1995C31.1409 21.4046 31.8773 21.6767 32.4891 22.0156C32.642 22.339 32.7185 22.816 32.7185 23.4467C32.7185 24.4086 32.4488 25.1459 31.9096 25.6585C31.4992 25.4376 30.996 25.2563 30.4004 25.1144C29.8129 24.9645 29.2817 24.8897 28.8068 24.8897C28.3319 24.8897 28.0341 24.9055 27.9133 24.937ZM40.8558 30.0907C40.9262 30.0907 40.9896 30.0735 41.046 30.0389V29.0972C41.5249 28.7798 42.1939 28.5211 43.0531 28.3211C43.9195 28.121 44.7611 28.0209 45.578 28.0209C45.9512 28.3935 46.2612 28.9523 46.5077 29.6974C46.7611 30.4357 46.8949 31.1049 46.909 31.7051C46.7682 31.9811 46.5287 32.2778 46.1907 32.5952C45.8597 32.9125 45.4582 33.2057 44.9864 33.4747C43.8173 34.151 42.4756 34.489 40.9615 34.489C38.7924 34.489 37.0844 33.8715 35.8379 32.6365C34.5491 31.3878 33.9047 29.6596 33.9047 27.4517C33.9047 25.237 34.6089 23.4985 36.0175 22.2359C36.6372 21.6702 37.3591 21.2458 38.183 20.963C39.0072 20.6733 39.8734 20.5284 40.7819 20.5284C42.5566 20.5284 44.011 20.9492 45.1448 21.791C46.2788 22.6327 46.8456 23.6709 46.8456 24.9059C46.8456 25.8373 46.5534 26.5273 45.9688 26.9757C45.3843 27.4172 44.592 27.6381 43.5918 27.6381C43.0426 27.6381 42.4897 27.507 41.9334 27.2448C41.377 26.9757 41.046 26.7238 40.9403 26.4893C40.9403 25.9236 40.951 25.4785 40.972 25.1544C40.9579 25.1474 40.9333 25.1439 40.8981 25.1439H40.8241C40.7185 25.1439 40.634 25.175 40.5706 25.237C40.5142 25.2923 40.4614 25.4131 40.4121 25.5993C40.3699 25.7855 40.3487 26.2927 40.3487 27.1206C40.3487 29.1006 40.5178 30.0907 40.8558 30.0907ZM60.1187 28.355C60.1187 28.9228 60.1831 29.3801 60.3118 29.7271C60.4406 30.0739 60.666 30.346 60.9879 30.5431C60.996 30.5826 61 30.6574 61 30.7679V30.9807C61 32.0688 60.6781 32.9164 60.0341 33.5236C59.3982 34.1228 58.5733 34.4224 57.5591 34.4224C56.553 34.4224 55.736 34.1425 55.1083 33.5827C54.3758 32.9441 54.0097 31.9742 54.0097 30.6733C54.0097 30.1213 54.0338 29.6364 54.082 29.2184C54.1384 28.7927 54.1746 28.4892 54.1906 28.3078C54.2149 28.1265 54.239 27.9569 54.2631 27.7991C54.2872 27.6416 54.2994 27.4089 54.2994 27.1014C54.2994 26.7939 54.2551 26.573 54.1665 26.4391C54.086 26.3049 53.9693 26.238 53.8165 26.238C53.6715 26.238 53.5428 26.2695 53.4302 26.3326L53.587 28.2604C53.4422 29.0569 53.3697 29.9004 53.3697 30.7915C53.3697 31.6824 53.575 32.4946 53.9854 33.228C53.1966 34.0243 52.09 34.4224 50.6653 34.4224C49.8525 34.4224 49.1481 34.2135 48.5525 33.7957C47.8603 33.3226 47.5142 32.6957 47.5142 31.9151V18.1127C47.9005 17.8919 48.3633 17.7106 48.9027 17.5686C49.4499 17.4267 50.0013 17.3557 50.5567 17.3557C51.4822 17.3557 52.2469 17.5331 52.8506 17.888C53.5348 18.3058 53.8768 18.905 53.8768 19.6856V20.8092C53.1766 20.8487 52.5045 21.0458 51.8605 21.4007C51.3053 21.716 51.0276 22.0038 51.0276 22.2641C51.0276 22.3508 51.0597 22.4297 51.1241 22.5005C51.1884 22.5637 51.2649 22.603 51.3535 22.6189C51.6916 22.2324 52.1665 21.9092 52.7782 21.649C53.3979 21.3887 54.1304 21.2587 54.9755 21.2587C55.8205 21.2587 56.5812 21.3848 57.2573 21.6371C58.1105 21.9525 58.7825 22.4336 59.2735 23.08C59.8611 23.8686 60.1548 24.8581 60.1548 26.0488L60.1187 28.355Z" fill="#E6E8FC"/>
<path d="M6.95124 12.9203C7.0217 12.9203 7.08507 12.9031 7.14132 12.8686V11.9268C7.62023 11.6095 8.28938 11.3507 9.1486 11.1507C10.0148 10.9506 10.8564 10.8505 11.6733 10.8505C12.0466 11.2231 12.3565 11.7819 12.603 12.527C12.8566 13.2653 12.9904 13.9345 13.0045 14.5347C12.8635 14.8107 12.6241 15.1074 12.286 15.4248C11.955 15.7421 11.5537 16.0353 11.0817 16.3043C9.91263 16.9806 8.57109 17.3186 7.05679 17.3186C4.8877 17.3186 3.17976 16.7011 1.93326 15.4661C0.644421 14.2174 0 12.4892 0 10.2813C0 8.06664 0.70438 6.32809 2.11283 5.06553C2.73268 4.49979 3.45452 4.07549 4.27852 3.79262C5.10251 3.50285 5.96869 3.35797 6.87721 3.35797C8.65207 3.35797 10.1063 3.77883 11.2403 4.62054C12.3741 5.46223 12.9411 6.50058 12.9411 7.73554C12.9411 8.6669 12.6487 9.35693 12.0643 9.80534C11.4796 10.2468 10.6873 10.4677 9.68732 10.4677C9.13794 10.4677 8.58516 10.3366 8.02867 10.0744C7.47234 9.80534 7.14132 9.55343 7.03577 9.31893C7.03577 8.75319 7.04628 8.30811 7.06745 7.98398C7.05339 7.97702 7.02866 7.97354 6.99343 7.97354H6.91956C6.81385 7.97354 6.72932 8.00457 6.66596 8.06664C6.60956 8.1219 6.55686 8.24271 6.50756 8.42891C6.46522 8.61512 6.4442 9.12228 6.4442 9.95022C6.4442 11.9302 6.61311 12.9203 6.95124 12.9203ZM19.7548 2.76364V11.0782C19.7548 12.253 20.0446 13.018 20.6241 13.3727C20.6321 13.4122 20.6361 13.487 20.6361 13.5975V13.8103C20.6361 14.9379 20.3423 15.7934 19.7548 16.3768C19.1753 16.9603 18.3504 17.252 17.2799 17.252C16.2094 17.252 15.3602 16.9603 14.7323 16.3768C13.9839 15.683 13.6096 14.6344 13.6096 13.2308V0.942249C14.4546 0.437608 15.4205 0.185303 16.5072 0.185303C17.6018 0.185303 18.4147 0.413961 18.9459 0.871278C19.4853 1.32072 19.7548 1.9515 19.7548 2.76364ZM40.726 11.1847C40.726 11.7602 40.7904 12.2294 40.9191 12.5921C41.048 12.9548 41.2733 13.2348 41.5952 13.4319C41.6034 13.4712 41.6074 13.5383 41.6074 13.6329V13.8103C41.6074 14.8905 41.2854 15.7342 40.6416 16.3414C39.9976 16.9485 39.1645 17.252 38.1424 17.252C37.1282 17.252 36.3113 16.98 35.6914 16.436C34.9591 15.8052 34.5928 14.8393 34.5928 13.5383V9.80095C34.5928 9.27261 34.4157 9.00843 34.0615 9.00843C33.9248 9.00843 33.8161 9.03992 33.7356 9.10305L33.9529 10.8654V13.5383C33.9529 14.6106 34.134 15.4228 34.4963 15.9748C34.1099 16.3768 33.627 16.6922 33.0475 16.9209C32.476 17.1417 31.8925 17.252 31.2969 17.252C30.331 17.252 29.5824 17.0234 29.0513 16.5661C28.4073 16.0141 28.0854 15.1429 28.0854 13.9522V9.80095C28.0854 9.27261 27.9083 9.00843 27.5541 9.00843C27.4174 9.00843 27.3087 9.03992 27.2282 9.10305L27.4455 10.8654V13.9996C27.4455 14.8826 27.5662 15.5646 27.8077 16.0458C27.019 16.8421 25.9122 17.2402 24.4875 17.2402C23.6425 17.2402 22.9301 17.0313 22.3506 16.6135C21.6825 16.1324 21.3485 15.4859 21.3485 14.6737V9.02024C20.8736 8.36579 20.6361 7.56157 20.6361 6.60752C20.6361 5.64556 20.8736 4.81371 21.3485 4.11196H24.2582C24.8296 4.11196 25.3166 4.32091 25.719 4.7388C25.3648 5.06208 25.1879 5.33016 25.1879 5.54306C25.1879 5.78749 25.3286 5.90971 25.6104 5.90971C25.9646 5.31045 26.4515 4.83342 27.0712 4.4786C27.7957 4.07648 28.6447 3.87541 29.6186 3.87541C30.3591 3.87541 31.0071 4.02917 31.5625 4.33668C32.1258 4.64418 32.5444 4.99901 32.8181 5.40113C33.1964 4.8965 33.6874 4.51803 34.291 4.26571C34.9027 4.0055 35.5386 3.87541 36.1986 3.87541C37.6555 3.87541 38.7862 4.31696 39.5912 5.20007C40.3799 6.08317 40.7743 7.2935 40.7743 8.831L40.726 11.1847Z" fill="#E6E8FC"/>
</svg>
